<svg id="Capa_1" data-name="Capa 1" xmlns="http://www.w3.org/2000/svg" viewBox="0 0 869.01 395.11">
  <g id="Capa_3" data-name="Capa 3">
    <path d="M233.19,254.08c-2-10.9-147.61,114-151.61,114.68-6,1,69.85-131.59,66.85-140.6C141.09,206,20.73,386.67,2.82,365.76-17.53,342.17,223.4,10.7,253.1.8c3-1-63.85,123.69-50.84,137.6C211.5,148.41,301.93,16.71,320,5.81c1.89-1.12-71,154.61-68.41,160.51S359.88,38.84,371.34,33.84s23.36-5,18.35,31.81C369.78,172.32,195.26,388.78,185.25,388.78,171.34,388.78,233.19,254.08,233.19,254.08Z" transform="translate(-1.6 -0.79)" style="fill: #008e33"/>
  </g>
  <g id="Capa_4" data-name="Capa 4">
    <path d="M712.82,261.31c-2-11-147.49,114-151.61,114.68-6,1,69.86-131.59,66.85-140.6C620.72,213.26,500.37,393.9,482.46,373,462.22,349.29,703.15,17.82,732.84,7.92c3-1-63.84,123.69-50.83,137.59,9.23,10,99.67-121.68,117.69-132.59,1.89-1.11-71,154.62-68.41,160.51S839.74,45.85,851.09,40.84s23.35-5,18.35,31.82C849.53,179.44,675,395.9,665,395.9,651.09,395.9,712.82,261.31,712.82,261.31Z" transform="translate(-1.6 -0.79)" style="fill: #ff232b"/>
  </g>
  <g id="Capa_2" data-name="Capa 2">
    <path d="M129,227.6" transform="translate(-1.6 -0.79)" style="fill: #008e33"/>
    <g>
      <path d="M416.5,81h-9.12V23.05h9.12v24.8h10.34V23.05h9.24V81h-9.24V56.08H416.5Z" transform="translate(-1.6 -0.79)"/>
      <path d="M457.21,47.41h12.46v8.23H457.21V72.55h15.68v8.23h-24.8V23.05h24.8v8.23H457.21V47.41Z" transform="translate(-1.6 -0.79)"/>
      <path d="M484,23.05h9.12V72.66H508v8.23H483.91Z" transform="translate(-1.6 -0.79)"/>
      <path d="M546.86,81h-9.23l-1.56-10.46H525L523.39,81h-8.34l9.23-57.95h13.35Zm-20.8-18.47h8.79l-4.34-29.25Z" transform="translate(-1.6 -0.79)"/>
      <path d="M556.43,23.05h14.35c9,0,13.57,4.78,13.57,14.35V66.65c0,9.57-4.56,14.35-13.57,14.35H556.43Zm9.12,8.23V72.66h5.12q4.67,0,4.67-5.68V37q0-5.67-4.67-5.67Z" transform="translate(-1.6 -0.79)"/>
      <path d="M594.92,37c0-4.67,1.22-8.23,3.56-10.79s5.78-3.78,10.23-3.78,7.9,1.22,10.23,3.78S622.5,32.28,622.5,37V67.1c0,4.67-1.22,8.23-3.56,10.79s-5.78,3.78-10.23,3.78-7.9-1.23-10.23-3.78-3.56-6.12-3.56-10.79Zm9,30.7c0,3.78,1.55,5.67,4.67,5.67s4.67-1.89,4.67-5.67V36.4q0-5.68-4.67-5.68c-3.12,0-4.67,1.89-4.67,5.68Z" transform="translate(-1.6 -0.79)"/>
      <path d="M646.08,22.38c8.9,0,13.46,4.89,13.46,14.57v1.78H651V36.28c0-3.78-1.56-5.67-4.56-5.67s-4.56,1.89-4.56,5.67a12.41,12.41,0,0,0,2.78,7.57A37.37,37.37,0,0,0,647.42,47L649,48.41l1.77,1.44a35.89,35.89,0,0,1,6,7A18.09,18.09,0,0,1,659.54,67c0,9.68-4.56,14.58-13.57,14.58S632.4,76.66,632.4,67V63.42H641v4.12c0,3.78,1.55,5.67,4.67,5.67s4.67-1.89,4.67-5.67A12.36,12.36,0,0,0,647.53,60c-.67-.89-1.67-1.89-2.78-3.12l-1.56-1.44-1.67-1.56a31,31,0,0,1-6.12-7,18.07,18.07,0,0,1-2.78-10.12C632.62,27.16,637.07,22.38,646.08,22.38Z" transform="translate(-1.6 -0.79)"/>
    </g>
    <g>
      <path d="M124,257.08c0,6.34-1.34,13-3.79,17H53.43l2-19.58L69.12,252V135.17l-15.35-2.56v-2.56c0-6.34,1.56-13,4-17H124.4l-2,19.58-13.68,2.56V252l15.12,2.56Z" transform="translate(-1.6 -0.79)" style="fill: #fff"/>
      <path d="M273.45,154.52c-4.67,2.9-11.45,4.45-18,4.45h-2.89l-4.78-24.58c-5.23.22-13.91.45-15.8.67v117l15.35,2.55v2.56c0,6.12-1.33,13-4,16.8H176.68l1.78-19.36,13.9-2.55V137c-5.45.22-14,.44-16,.67l-6,21.24h-4.12c-6.56,0-13.45-1.67-17.79-4.45v-41.6H245l33.37-2.33Z" transform="translate(-1.6 -0.79)" style="fill: #fff"/>
      <path d="M429.07,257.08c0,6.34-1.34,13-3.78,17H358.88l1.78-19.58L376.9,252l-10.79-34.81-40.93,2.78-9.9,31.92,17.35,2.56V257c0,6.34-1.56,13-4,17H276.79l2-19.58,9-2.56,48.39-138.93,36.71-2.33L418.61,252l10.57,2.56v2.56ZM347.53,154h-2l-13.9,44.71h29.25Z" transform="translate(-1.6 -0.79)" style="fill: #fff"/>
      <path d="M445.86,274.1l2-19.35,13.9-2.56V135.06l-15.35-2.56v-2.56c0-6.12,1.33-13,3.78-17h68l-1.78,19.58-15.13,2.56V252.74q15.18-1.34,30.36-2.33c2-9.9,4-19.58,5.68-29.59h3c6.34,0,15.13,1.67,19.58,4.45V274Z" transform="translate(-1.6 -0.79)" style="fill: #fff"/>
      <path d="M655.76,257.08c0,6.34-1.33,13-3.78,17H585.13l2-19.58L600.81,252V135.17l-15.35-2.56v-2.56c0-6.34,1.56-13,4-17h66.85l-2,19.58-13.68,2.56V252l15.13,2.56Z" transform="translate(-1.6 -0.79)" style="fill: #fff"/>
      <path d="M822.83,257.08c0,6.34-1.33,13-3.78,17H752.64l1.78-19.58L770.66,252l-10.79-34.81-40.93,2.78L709,251.85l17.35,2.56V257c0,6.34-1.55,13-4,17H670.33l2-19.58,9-2.56,48.39-138.93,36.71-2.33L812.15,252l10.57,2.56ZM741.3,154h-2l-13.91,44.71h29.26Z" transform="translate(-1.6 -0.79)" style="fill: #fff"/>
    </g>
    <g>
      <path d="M130,261.31c0,6.34-1.33,13-3.78,17H59.33l2-19.58L75,256.19V139.4l-15.46-2.67v-2.56c0-6.34,1.56-13,4-17h66.85l-2,19.58-13.69,2.56V256.08l15.13,2.56Z" transform="translate(-1.6 -0.79)" style="fill: #372e30"/>
      <path d="M279.46,158.75c-4.67,2.78-11.46,4.45-18,4.45h-2.89l-4.79-24.58c-5.22.22-13.9.44-15.79.67v117L253.32,259v2.56c0,6.12-1.34,13-4,16.8H182.69L184.47,259l13.9-2.56V141.29c-5.45.22-14,.44-16,.67l-6,21.24h-4.23c-6.56,0-13.46-1.67-17.8-4.45v-41.6h96.55l33.37-2.34Z" transform="translate(-1.6 -0.79)" style="fill: #372e30"/>
      <path d="M435.07,261.31c0,6.34-1.33,13-3.78,17h-66.4l1.78-19.58,16.24-2.56-10.79-34.7-40.94,2.89-9.9,31.92,17.36,2.56v2.56c0,6.34-1.56,13-4,17H282.57l2-19.58,9-2.56L342,117.37,378.68,115,424.4,256.41,435,259v2.34ZM353.54,158.2h-2l-13.91,44.71h29.26Z" transform="translate(-1.6 -0.79)" style="fill: #372e30"/>
      <path d="M451.76,278.33l2-19.36,13.91-2.56V139.29l-15.35-2.56v-2.56c0-6.12,1.33-13,3.78-17h68.18l-1.78,19.69-15.12,2.56V257.08c10.12-1,20.24-1.67,30.36-2.33,2-10,4-19.58,5.68-29.59h3c6.34,0,15.13,1.67,19.58,4.45v48.72Z" transform="translate(-1.6 -0.79)" style="fill: #372e30"/>
      <path d="M661.77,261.31c0,6.34-1.34,13-3.78,17H591.13l2-19.58,13.68-2.56V139.4l-15.35-2.56v-2.56c0-6.34,1.56-13,4-17h66.85l-2,19.58-13.68,2.56V256.19l15.13,2.56Z" transform="translate(-1.6 -0.79)" style="fill: #372e30"/>
      <path d="M828.84,261.31c0,6.34-1.34,13-3.78,17H758.65l1.78-19.58,16.24-2.56-10.79-34.7L725,224.38l-9.9,31.92,17.35,2.56v2.56c0,6.34-1.56,13-4,17H676.23l2-19.58,9-2.56,48.39-138.93,36.7-2.33,45.72,141.37L828.62,259ZM747.31,158.2h-2l-13.9,44.71h29.25Z" transform="translate(-1.6 -0.79)" style="fill: #372e30"/>
    </g>
  </g>
</svg>
