<svg id="Capa_1" data-name="Capa 1" xmlns="http://www.w3.org/2000/svg" viewBox="0 0 2500 2500">
  <rect width="2500" height="2500" style="fill: #606060"/>
  <path d="M368.4,822.47l65.32,1.25,72.6,481.12c22.19,5,43.71,11,64.52,17.77-20.47-6.66-41.52-12.49-63.3-17.49C367.9,1276.38,281.79,1318.31,239,1418l131.38,51.52,560.44,219a672.81,672.81,0,0,0-31.68-80.26c1.78,3.61,3.75,7.36,5.45,11.11h530.78c53.05,114.27,188.62,206.75,302.9,206.75s163.45-92.62,109.88-206.75h173.74c-100.29-237-297.34-419.33-499.36-436.83h260.74c20.72,0,29.44-17.21,19.57-38l-19.8-41.8c-9.8-20.69-34.47-37.49-54.74-37.49H1725L1589.57,778.87c-8.86-18.74-31.27-34.15-49.64-34.15H1058c-18.38,0-26.35,15.41-17.68,34.15L1172.82,1065H933.18c-25.71-.83-33.79,10.84-22.17,36.52l37.12,81.09h0l24.29,53c147.83,86.09,226.24,220.64,161.82,296.45h-161c-62.87-129-171.71-207.58-332.33-294.5l-29.71-225.08c-2.06-70-45.64-123-105.68-160.1-6.49-44.15-13.91-81.92-30.87-112.74l82.19,15.83c26.71,5.13,37,14,34-10a79.61,79.61,0,0,0-2.49-12.36c-8.85-32.91-11.65-30.69-40.1-35.82l-87.15-15.83H437.26l-37-16.8c-22.18-10.28-43.15-16.39-62.89-18.89L311,644.19c-26.36,0-59.35-7.5-63.41,17.35-.08.42.47,2,1.33,4.17-9,3.75-14.62,11.94-16.51,23.19-2.46,13.6.72,32.21,9.81,52.48a167.68,167.68,0,0,0,37.3,52.49c16.4,15.27,34.53,25,50.53,25.41,12.13,6.66,24.89,2.91,38.38,3.19ZM1455.64,981.32H1626l14.36,30.41H1469.9l-14.26-30.41ZM1229.72,774.57h122.59L1416,910.36l-88.21-50.81-34.68,50.81-63.35-135.79Zm263,285.89h170.61l14.35,30.41H1507l-14.26-30.41ZM371.12,1469.93l222.69,87.48-72-27.49c-37.12,8.75-51.44,45.4-31.94,89.14,22.47,50.4,81.41,91.23,131.71,91.23s72.7-40.83,50.06-91.23c-7-15.55-17.41-30.13-30-43l152.45,59.7c39.66,106.64-11.79,190.51-120.51,190.51-114.41,0-248.32-92.76-299.09-207.17-26.28-58.59-25.6-111.5-3.41-149.13ZM265.27,701.25c12.79,26.66,30,61,41.55,84a62.59,62.59,0,0,1-9.69-7.64c-9.78-9-19-21.94-25.46-36.38s-8.75-27.35-7.23-36.38c.26-1.24.51-2.49.83-3.61ZM1551,1619.34h181.77c23.41,50.26,1.66,90.81-48.49,90.81s-109.76-40.55-133.28-90.81Z" style="fill: #fff;fill-rule: evenodd"/>
  <rect x="1782.77" y="755.48" width="541.9" height="59.56" rx="20.23" style="fill: #fff"/>
  <rect x="1770.44" y="910.36" width="378.28" height="59.56" rx="20.23" style="fill: #fff"/>
  <rect x="1863.97" y="1061.09" width="523.79" height="59.56" rx="20.23" style="fill: #fff"/>
</svg>
