<svg id="Capa_1" data-name="Capa 1" xmlns="http://www.w3.org/2000/svg" viewBox="0 0 720 720">
  <rect width="720" height="720" style="fill: #e73645"/>
  <path d="M448.56,120.48H127.11a8.42,8.42,0,0,0-8.56,8.28v45.85c0,50.5,35.72,78.82,101,78.82h229a44.34,44.34,0,0,1,0,88.68H191.15c-3.7,0-7.4,2.46-7.4,6.16l-61.6,240.16c-1.24,2.46,0,4.93,1.23,7.39a6.84,6.84,0,0,0,6.16,3.7h81.28c30.81,0,45.58-25.87,49.26-38.2l23.41-87.44H447.32a176.07,176.07,0,0,0,176.13-176v0C623.45,199.3,544.63,120.48,448.56,120.48Z" style="fill: #fff"/>
</svg>
