<svg xmlns="http://www.w3.org/2000/svg" viewBox="0 0 900 900">
  <g id="Capa_2" data-name="Capa 2">
    <rect width="900" height="900" style="fill: #fd6250"/>
  </g>
  <g id="Layer_1" data-name="Layer 1">
    <g>
      <path d="M208,370c-1.32,4.6-2.51,9.07-3.56,13.33q-2,8-3.64,14.61c-1.08,4.28-1.84,7.73-2.27,10.25-.87,4.46-3.79,7.28-8.46,8.2a25.42,25.42,0,0,1-12.79-1A30,30,0,0,1,165.4,408a18.54,18.54,0,0,1-5.52-13.62c0-4.4,1.1-11.34,3.36-21.22,2.2-9.65,5.38-21.08,9.46-34s9-26.94,14.58-42c4.83-12.91,10.25-25.91,16.13-38.73a13.23,13.23,0,0,1,10.5-7.62q15.59-1.82,27.05.89a7.53,7.53,0,0,1,5.14,10.4c-4.93,11-9.47,22-13.53,32.68-3.28,8.65-6.43,17.22-9.4,25.55a1,1,0,0,0,1.34,1.22,94.55,94.55,0,0,0,11.69-6.43,85.55,85.55,0,0,0,17-14.29,71,71,0,0,0,12.12-18.27,50.92,50.92,0,0,0,4.57-21.38c0-9.74-2.7-16.93-8-21.37s-13-6.77-22.53-6.77a54.27,54.27,0,0,0-27.7,7.19A83,83,0,0,0,190,258.14a87.31,87.31,0,0,0-14,22.3c-3.27,7.72-4.93,14.48-4.93,20.1a8.13,8.13,0,0,1-6,8.2,16.42,16.42,0,0,1-10.95-.49A23.49,23.49,0,0,1,144,300.2c-3.07-4-4.63-9.38-4.63-16,0-5.82,2.21-12.67,6.73-20.94,4.42-8.07,10.94-15.92,19.39-23.34s19.09-13.84,31.66-19.1,27.28-8,43.46-8A119.55,119.55,0,0,1,268.11,216a85.93,85.93,0,0,1,24.46,9.73A57.24,57.24,0,0,1,310.23,242a39,39,0,0,1,6.88,22.8,56.27,56.27,0,0,1-6,25.79,75,75,0,0,1-16.25,21.13,106.11,106.11,0,0,1-23.74,16.22,156.41,156.41,0,0,1-23.55,9.57.85.85,0,0,0-.69,1c.18,4.1.47,8.13.88,12,.46,4.47,1.08,8.83,1.83,13s1.62,8,2.63,11.77c.79,2.9,1.66,5.72,2.6,8.39.6,1.71,1.23,3.38,1.87,4.95a94.49,94.49,0,0,0,4.2,9,78.2,78.2,0,0,0,4.76,7.76,66.14,66.14,0,0,0,5.23,6.55,56.2,56.2,0,0,0,5.61,5.35,49.09,49.09,0,0,0,5.93,4.19,45.1,45.1,0,0,0,6.19,3.07,43.2,43.2,0,0,0,6.44,2,42.57,42.57,0,0,0,6.7.95,45.45,45.45,0,0,0,7-.1,52.15,52.15,0,0,0,7.29-1.18,58.73,58.73,0,0,0,7.55-2.32,71.32,71.32,0,0,0,7.79-3.51c1-.51,2-1.06,3-1.63a7.23,7.23,0,0,1,8.38,11.7q-2.07,1.8-4.12,3.5c-3.32,2.72-6.64,5.24-9.88,7.49-3.09,2.14-6.23,4.13-9.32,5.9-1.55.88-3.18,1.76-4.83,2.6a99.35,99.35,0,0,1-9.56,4.23,79.94,79.94,0,0,1-9.43,2.91,71.16,71.16,0,0,1-9.25,1.61,64.26,64.26,0,0,1-6.46.33c-.86,0-1.71,0-2.57-.05a58.24,58.24,0,0,1-8.7-1c-1.41-.27-2.82-.61-4.2-1s-2.71-.81-4.08-1.31a56.75,56.75,0,0,1-7.76-3.52,59.85,59.85,0,0,1-7.16-4.64,65.69,65.69,0,0,1-5.39-4.56,71.62,71.62,0,0,1-6-6.45,78.34,78.34,0,0,1-5.38-7.34c-1.68-2.58-3.28-5.34-4.75-8.18s-2.85-5.87-4.11-9-2.42-6.36-3.48-9.74-2-6.85-2.83-10.47-1.56-7.38-2.17-11.17c-.53-3.34-1-6.82-1.35-10.35A1,1,0,0,0,208,370" style="fill: #fff"/>
      <path d="M760.67,234.63a27.52,27.52,0,1,1-27.51-27.52,27.51,27.51,0,0,1,27.51,27.52" style="fill: #fff"/>
      <path d="M754.53,345.6a7.93,7.93,0,0,0-6.58-3.42,7.44,7.44,0,0,0-6.21,3.24c-1.63,2.36-3.64,5.16-6,8.33a110,110,0,0,1-8.24,9.9,91.27,91.27,0,0,1-8.34,8c-2.74,2.28-4.52,2.76-5.52,2.76-.71,0-2,0-2.31-3.47s.22-8.34,1.59-14a166.35,166.35,0,0,1,6-19.24c2.64-7,5.3-13.8,7.89-20,2.7-6.48,5-11.87,7.08-16.47s3.34-7.57,3.83-8.87A9.72,9.72,0,0,0,736,281.51a20,20,0,0,0-10.16-6.24,27.76,27.76,0,0,0-13.19-.19A17.67,17.67,0,0,0,701,283.63a189.56,189.56,0,0,0-9.56,18.87c-3.88,8.51-7.63,17.95-11.15,28.07-2.13,6.13-4.1,12.37-5.88,18.65a53,53,0,0,1-17.47,26.6,111.12,111.12,0,0,1-9.47,6.93c-1.45.95-2.92,1.84-4.39,2.64a.49.49,0,0,1-.63-.72q3.81-5,7.48-10.82a152.08,152.08,0,0,0,13.6-28.31c4.23-11.47,6.89-21.93,7.89-31.09s.66-17.38-1-24.06c-1.77-6.91-4.86-12.34-9.2-16.15a24.25,24.25,0,0,0-16.5-5.93,37.86,37.86,0,0,0-20.79,6,83.16,83.16,0,0,0-11.68,9,.43.43,0,0,1-.75-.1,15.31,15.31,0,0,0-3.18-3.54,23.61,23.61,0,0,0-10.74-4.93,24.75,24.75,0,0,0-12.44.84,16,16,0,0,0-9.73,8.86c-4,8.54-8.15,18.51-12.45,29.64s-8.46,22.71-12.42,34.51c-.44,1.3-.88,2.61-1.31,3.92a53.08,53.08,0,0,1-18,25.34c-2.22,1.7-4.51,3.33-6.86,4.87-1.46.95-2.93,1.84-4.4,2.65a.49.49,0,0,1-.63-.73c2.54-3.34,5-7,7.47-10.82a151.47,151.47,0,0,0,13.61-28.31c4.23-11.47,6.89-21.93,7.89-31.09s.66-17.38-1.05-24.06c-1.76-6.91-4.86-12.34-9.2-16.15a24.23,24.23,0,0,0-16.49-5.93,37.81,37.81,0,0,0-20.79,6,82.12,82.12,0,0,0-11.69,9,.43.43,0,0,1-.75-.1A15.14,15.14,0,0,0,485,279.7a23.47,23.47,0,0,0-10.73-4.93,24.74,24.74,0,0,0-12.44.84,16,16,0,0,0-9.73,8.86c-4,8.56-8.16,18.53-12.45,29.64-4,10.43-7.94,21.27-11.65,32.23a51,51,0,0,1-13.26,21q-2.43,2.36-4.72,4.25c-2.74,2.28-4.52,2.76-5.52,2.76-.71,0-2,0-2.31-3.47s.23-8.33,1.59-14a166.35,166.35,0,0,1,6-19.24c2.62-7,5.28-13.72,7.89-20s5-11.9,7.08-16.47,3.35-7.58,3.83-8.87a9.74,9.74,0,0,0-1.73-10.77,20.1,20.1,0,0,0-10.36-6.25,27.91,27.91,0,0,0-13.18-.18,17.66,17.66,0,0,0-11.54,8.54c-.56.91-1.15,1.91-1.77,3a.48.48,0,0,1-.9-.13,27.42,27.42,0,0,0-2.57-7.09,20.81,20.81,0,0,0-7.75-8c-3.43-2.06-7.79-3.1-12.95-3.1-12.17,0-24.51,5.61-36.68,16.69-11.95,10.88-21.86,28.23-29.45,51.59a130.2,130.2,0,0,0-6.21,30.94c-.56,9.39.19,17.49,2.25,24.07,2.11,6.79,5.49,12.15,10.05,15.93a25.55,25.55,0,0,0,16.77,5.88,37.35,37.35,0,0,0,13.5-2.44,50.66,50.66,0,0,0,11.2-6,50,50,0,0,0,7.2-6.26,3,3,0,0,1,5,1.19,23.26,23.26,0,0,0,3,6.5c3.18,4.65,8.22,7,15,7,7.47,0,15-2.8,22.43-8.33a123,123,0,0,0,10.1-8.39,1,1,0,0,1,1.61,1c-1.91,6.35-3.62,12.24-5.17,17.76-2.6,9.28-4.72,17.28-6.3,23.77-2.1,8.7-2.37,11.07-2.37,12.16a19.57,19.57,0,0,0,4.92,13.52,26.7,26.7,0,0,0,10.9,7.46,23.31,23.31,0,0,0,7.77,1.43,17.88,17.88,0,0,0,4-.44,9.63,9.63,0,0,0,7.7-8.12l0-.11c.43-2.91,1.25-6.84,2.43-11.71,1.23-5,2.73-10.78,4.45-17.07s3.64-13.2,5.93-21.27c1.06-3.73,2.2-7.64,3.41-11.7a1,1,0,0,1,1.79-.21,27.67,27.67,0,0,0,1.8,2.71c3.71,5,9.64,7.52,17.62,7.53,1.6.07,3.21.11,4.78.11h0a88.08,88.08,0,0,0,32.74-6,131.3,131.3,0,0,0,26.11-13.78,1,1,0,0,1,1.49,1.1c-2.24,7.37-4.26,14.27-6,20.61-2.62,9.35-4.74,17.35-6.3,23.77-2.1,8.72-2.38,11.08-2.38,12.16a19.58,19.58,0,0,0,4.93,13.52,26.77,26.77,0,0,0,10.9,7.46,23.31,23.31,0,0,0,7.77,1.43,17.94,17.94,0,0,0,4-.44,9.63,9.63,0,0,0,7.7-8.12l0-.11c.43-2.92,1.25-6.86,2.44-11.71,1.22-5,2.72-10.78,4.44-17.07s3.65-13.23,5.94-21.27c1.06-3.74,2.19-7.65,3.4-11.7a1,1,0,0,1,1.79-.22,27.8,27.8,0,0,0,1.8,2.72c3.71,5,9.64,7.52,17.62,7.53,1.6.07,3.21.11,4.78.11h0a88.17,88.17,0,0,0,32.75-6,129.09,129.09,0,0,0,30.06-16.6q2.24-1.69,4.36-3.4a1,1,0,0,1,1.59.78v1.11c0,7,1.47,12.72,4.37,17,3.18,4.65,8.22,7,15,7,7.45,0,15-2.8,22.58-8.31a127.55,127.55,0,0,0,20.07-18.42,195.7,195.7,0,0,0,15.9-20.37c4.51-6.73,7.55-11.32,9.28-14.06a6,6,0,0,0,.12-6.65M373.82,309.78a130.17,130.17,0,0,1-3.09,16.67,154.34,154.34,0,0,1-6.18,19.23c-2.57,6.58-5.32,12.77-8.16,18.41A98.46,98.46,0,0,1,348,378a39.52,39.52,0,0,1-7.54,8.09c-1.71,1.28-2.65,1.41-3,1.41a.82.82,0,0,1-.41-.09c-.32-.14-1.38-.85-1.94-4.21a47.35,47.35,0,0,1-.14-11.78A109.42,109.42,0,0,1,337.92,355a153,153,0,0,1,6.18-19.22c2.61-6.67,5.36-12.87,8.17-18.42a106,106,0,0,1,8.38-14.11,38.12,38.12,0,0,1,7.53-8.22,5.53,5.53,0,0,1,3-1.41,1,1,0,0,1,.4.08c.32.15,1.44.9,2.12,4.3a40.09,40.09,0,0,1,.14,11.81m133.28.29A153.92,153.92,0,0,1,503,326.64a186.4,186.4,0,0,1-7,19.21c-3,6.65-6.17,12.85-9.31,18.43a117.7,117.7,0,0,1-9.22,14.15,41.5,41.5,0,0,1-8,8.26c-1.82,1.3-2.82,1.44-3.17,1.44a1,1,0,0,1-.43-.09c-.3-.14-1.32-.83-1.76-4.14a40.25,40.25,0,0,1,.65-11.81,147,147,0,0,1,4.06-16.72,186.43,186.43,0,0,1,7-19.26,163.38,163.38,0,0,1,9.1-18.35,118.67,118.67,0,0,1,9.38-14,43.16,43.16,0,0,1,8-8.13c1.83-1.3,2.83-1.44,3.18-1.44a1.08,1.08,0,0,1,.42.08c.3.14,1.32.84,1.77,4.15a39.39,39.39,0,0,1-.65,11.65m123.19,0a153.92,153.92,0,0,1-4.06,16.57,189.19,189.19,0,0,1-7,19.21c-3,6.64-6.17,12.84-9.32,18.43a116.52,116.52,0,0,1-9.21,14.15,41.5,41.5,0,0,1-8,8.26c-1.82,1.3-2.82,1.44-3.17,1.44a1,1,0,0,1-.43-.09c-.3-.14-1.32-.84-1.76-4.14a40.21,40.21,0,0,1,.65-11.81A145,145,0,0,1,592,355.37a187.12,187.12,0,0,1,7-19.26,161.69,161.69,0,0,1,9.11-18.35,119.11,119.11,0,0,1,9.38-14,42.57,42.57,0,0,1,8-8.13c1.83-1.3,2.83-1.44,3.18-1.44a1.08,1.08,0,0,1,.42.08c.3.14,1.32.84,1.77,4.15a39.39,39.39,0,0,1-.65,11.65" style="fill: #fff"/>
      <path d="M754.69,562.3c-32.92,28.81-62.11,30.62-97.16,4.81-16.12-11.85-30.56-26-46.72-37.76-12.51-9.12-25.72-18.18-40-23.81-24.7-9.78-49.75-6.46-72.3,7.25-15.32,9.31-29.27,20.91-43.48,32-2,1.54-3.49,2.38-5,2.31s-3-.77-5-2.31c-14.21-11-28.17-22.65-43.49-32-22.53-13.71-47.6-17-72.29-7.25-14.27,5.63-27.49,14.69-40,23.81-16.16,11.79-30.6,25.91-46.71,37.76-35.06,25.81-64.25,24-97.16-4.81q-4.06-3.57-8.14-7.1a181.77,181.77,0,0,0,31.07,73.49c19.9,28.16,46,48.34,78.76,59.41C323.67,714,420.4,677.91,450,609.8,479.67,677.91,576.41,714,653,688.1c32.76-11.07,58.86-31.25,78.77-59.41a181.89,181.89,0,0,0,31.06-73.49q-4.07,3.52-8.13,7.1" style="fill: #fff"/>
    </g>
  </g>
</svg>
