<svg xmlns="http://www.w3.org/2000/svg" viewBox="0 0 512 512">
  <g id="Capa_2" data-name="Capa 2">
    <rect width="512" height="512" style="fill: #fff"/>
  </g>
  <g id="Capa_1" data-name="Capa 1">
    <path d="M398.37,402.31,375,425.71c-4.18,4.15-16.42,6.78-16.78,6.78A276.17,276.17,0,0,1,79.52,153.18s2.69-11.93,6.85-16.07l23.4-23.42c8.59-8.57,25-12.45,36.54-8.62l4.94,1.66C162.76,110.57,174.8,123.28,178,135l11.79,43.24c3.2,11.72-1.1,28.39-9.67,37l-15.65,15.64a166,166,0,0,0,116.76,116.8L296.85,332c8.57-8.57,25.29-12.86,37-9.67l43.24,11.81c11.68,3.16,24.39,15.18,28.25,26.71l1.64,4.93C410.82,377.29,406.94,393.73,398.37,402.31ZM278.06,256h22.06A44.12,44.12,0,0,0,256,211.87v22.06A22.1,22.1,0,0,1,278.06,256Zm88.25,0A110.31,110.31,0,0,0,256,145.68v22.07A88.35,88.35,0,0,1,344.25,256ZM256,79.5v22.06c85.14,0,154.43,69.29,154.43,154.44h22.06A176.5,176.5,0,0,0,256,79.5Z"/>
  </g>
</svg>
