<svg id="Capa_1" data-name="Capa 1" xmlns="http://www.w3.org/2000/svg" viewBox="0 0 518.11 398.39">
  <defs>
    <style>
      .cls-1 {
        fill: #fff;
      }
    </style>
  </defs>
  <rect class="cls-1" x="0.5" y="115.85" width="299" height="167" rx="69.67"/>
  <path class="cls-1" d="M229.83,116.85A69.25,69.25,0,0,1,299,186v27.66a69.25,69.25,0,0,1-69.17,69.17H70.17A69.25,69.25,0,0,1,1,213.68V186a69.25,69.25,0,0,1,69.17-69.17H229.83m0-1H70.17A70.16,70.16,0,0,0,0,186v27.68a70.16,70.16,0,0,0,70.15,70.17H229.83A70.16,70.16,0,0,0,300,213.7V186a70.16,70.16,0,0,0-70.15-70.17Z" transform="translate(0 -0.5)"/>
  <path class="cls-1" d="M77.34,146,239.55,12.36C274.86-16.73,324.64,11,325.6,60.2L331,336.48c1,50.93-50.65,80.67-86.74,50L76.65,243.76C47.73,219.14,48.07,170.08,77.34,146Z" transform="translate(0 -0.5)"/>
  <path class="cls-1" d="M373.42,267.77h0c-4.66-9.13,1-21.71,8.35-31a68.34,68.34,0,0,0,0-86.92c-7.39-9.25-13-21.83-8.35-31h0c4.51-9.14,24.11-8,36.85,7.29,32.13,38.49,32.13,95.77,0,134.26C397.53,275.79,377.92,276.91,373.42,267.77Z" transform="translate(0 -0.5)"/>
  <path class="cls-1" d="M447.49,324.51h0c-7.31-7.17-6.64-19.76,0-28.9a173.91,173.91,0,0,0,0-205.52c-6.66-9.14-7.33-21.73,0-28.9h0c7.26-7.16,21.45-4.45,29.87,7a210.94,210.94,0,0,1,0,249.26C468.94,329,454.75,331.67,447.49,324.51Z" transform="translate(0 -0.5)"/>
</svg>
