<svg xmlns="http://www.w3.org/2000/svg" xmlns:xlink="http://www.w3.org/1999/xlink" viewBox="0 0 2488.92 2500">
  <defs>
    <linearGradient id="Degradado_sin_nombre" data-name="Degradado sin nombre" x1="1233.38" x2="1233.38" y2="2500" gradientTransform="translate(11.08)" gradientUnits="userSpaceOnUse">
      <stop offset="0" stop-color="#20b038"/>
      <stop offset="1" stop-color="#60d66a"/>
    </linearGradient>
    <linearGradient id="Degradado_sin_nombre-2" x1="1061.12" y1="1018.76" x2="1061.12" y2="1858.36" gradientTransform="matrix(2.04, 0, 0, -2.04, -921.02, 4175.67)" xlink:href="#Degradado_sin_nombre"/>
  </defs>
  <g id="Capa_2" data-name="Capa 2">
    <rect width="2488.92" height="2500" transform="translate(2488.92 2500) rotate(180)" style="fill: url(#Degradado_sin_nombre)"/>
  </g>
  <g id="Capa_1" data-name="Capa 1">
    <path d="M1877.81,613.17c-168-168.17-391.5-260.83-629.57-260.93-490.59,0-889.82,399.11-890,889.67A888.15,888.15,0,0,0,477,1686.72l-126.26,461,471.81-123.71a889.43,889.43,0,0,0,425.3,108.31h.38c490.51,0,889.8-399.19,890-889.73.08-237.75-92.41-461.29-260.44-629.46ZM1248.24,1982.09H1248A738.88,738.88,0,0,1,871.44,1879l-27-16-280,73.41,74.75-272.88-17.61-28A737.45,737.45,0,0,1,508.49,1242c.16-407.74,332-739.45,740-739.45,197.6.08,383.31,77.1,523,216.87S1988,1045,1988,1242.57C1987.8,1650.33,1656,1982.09,1248.24,1982.09Z" style="fill: #e0e0e0"/>
    <path d="M391.6,2096.6l120.5-440a847.43,847.43,0,0,1-113.38-424.48c.19-468.14,381.2-849,849.33-849,227.21.1,440.46,88.53,600.79,249s248.64,373.8,248.54,600.67c-.19,468.15-381.22,849.06-849.3,849.06h-.37a849.14,849.14,0,0,1-405.86-103.34L391.6,2096.6Z" style="fill: url(#Degradado_sin_nombre-2)"/>
    <path d="M1028.31,864.2c-16.47-36.6-33.81-37.34-49.47-38-12.81-.55-27.48-.51-42.13-.51s-38.47,5.5-58.62,27.5-76.94,75.18-76.94,183.33,78.78,212.68,89.76,227.36,152.08,243.69,375.52,331.81c185.7,73.23,223.49,58.66,263.79,55s130.06-53.17,148.38-104.5,18.32-95.32,12.83-104.52-20.16-14.65-42.14-25.65-130.06-64.18-150.21-71.51-34.81-11-49.47,11-56.76,71.49-69.59,86.14-25.65,16.53-47.64,5.53-92.78-34.21-176.77-109.1c-65.35-58.26-109.47-130.22-122.3-152.23S1031.94,1152,1043,1141c9.87-9.85,22-25.66,33-38.5s14.64-22,22-36.66,3.67-27.51-1.83-38.5-48.22-119.71-67.76-163.18Z" style="fill: #fff;fill-rule: evenodd"/>
    <path d="M1870.54,610.34c-166.12-166.23-387-257.83-622.34-257.93-485,0-879.61,394.53-879.81,879.46a878,878,0,0,0,117.43,439.7L361,2127.31,827.4,2005a879.11,879.11,0,0,0,420.42,107.06h.38c484.87,0,879.59-394.59,879.79-879.5.08-235-91.35-456-257.45-622.24ZM1248.2,1963.54h-.29a730.27,730.27,0,0,1-372.19-101.91L849,1845.8l-276.77,72.56,73.89-269.75L628.73,1621a729.09,729.09,0,0,1-111.8-389c.16-403.06,328.19-731,731.54-731,195.33.08,378.91,76.22,517,214.38s214,321.84,214,517.18C1979.27,1635.59,1651.23,1963.54,1248.2,1963.54Z" style="fill: #fff"/>
  </g>
</svg>
